<mxfile host="app.diagrams.net" modified="2021-02-04T04:09:20.657Z" agent="5.0 (Macintosh; Intel Mac OS X 10_15_7) AppleWebKit/537.36 (KHTML, like Gecko) Chrome/88.0.4324.96 Safari/537.36" etag="854s0wsLB6eS5ZeQXTEw" version="14.2.9" type="github">
  <diagram id="7YMl9cytQwAtQ-ZRcQce" name="Page-1">
    <mxGraphModel dx="1257" dy="2012" grid="1" gridSize="10" guides="1" tooltips="1" connect="1" arrows="1" fold="1" page="1" pageScale="1" pageWidth="827" pageHeight="1169" math="0" shadow="0">
      <root>
        <mxCell id="0" />
        <mxCell id="1" parent="0" />
        <mxCell id="lGvIj3j2PqMRO3OpGktE-1" value="事件" style="html=1;verticalLabelPosition=bottom;align=center;labelBackgroundColor=#ffffff;verticalAlign=top;strokeWidth=2;strokeColor=#0080F0;shadow=0;dashed=0;shape=mxgraph.ios7.icons.folder;" vertex="1" parent="1">
          <mxGeometry x="160" y="280" width="90" height="70" as="geometry" />
        </mxCell>
        <mxCell id="lGvIj3j2PqMRO3OpGktE-2" value="" style="shape=curlyBracket;whiteSpace=wrap;html=1;rounded=1;" vertex="1" parent="1">
          <mxGeometry x="270" y="90" width="130" height="455" as="geometry" />
        </mxCell>
        <mxCell id="lGvIj3j2PqMRO3OpGktE-3" value="规则" style="strokeWidth=2;html=1;shape=mxgraph.flowchart.document2;whiteSpace=wrap;size=0.25;" vertex="1" parent="1">
          <mxGeometry x="420" y="70" width="100" height="60" as="geometry" />
        </mxCell>
        <mxCell id="lGvIj3j2PqMRO3OpGktE-4" value="规则" style="strokeWidth=2;html=1;shape=mxgraph.flowchart.document2;whiteSpace=wrap;size=0.25;" vertex="1" parent="1">
          <mxGeometry x="420" y="170" width="100" height="60" as="geometry" />
        </mxCell>
        <mxCell id="lGvIj3j2PqMRO3OpGktE-5" value="模型" style="strokeWidth=2;html=1;shape=mxgraph.flowchart.document2;whiteSpace=wrap;size=0.25;" vertex="1" parent="1">
          <mxGeometry x="420" y="270" width="100" height="60" as="geometry" />
        </mxCell>
        <mxCell id="lGvIj3j2PqMRO3OpGktE-6" value="" style="shape=curlyBracket;whiteSpace=wrap;html=1;rounded=1;" vertex="1" parent="1">
          <mxGeometry x="530" y="-50" width="130" height="287.5" as="geometry" />
        </mxCell>
        <mxCell id="lGvIj3j2PqMRO3OpGktE-7" value="特征0" style="rounded=0;whiteSpace=wrap;html=1;" vertex="1" parent="1">
          <mxGeometry x="670" y="-70" width="70" height="40" as="geometry" />
        </mxCell>
        <mxCell id="lGvIj3j2PqMRO3OpGktE-8" value="特征1" style="rounded=0;whiteSpace=wrap;html=1;" vertex="1" parent="1">
          <mxGeometry x="670" y="-10" width="70" height="40" as="geometry" />
        </mxCell>
        <mxCell id="lGvIj3j2PqMRO3OpGktE-9" value="特征2" style="rounded=0;whiteSpace=wrap;html=1;" vertex="1" parent="1">
          <mxGeometry x="670" y="50" width="70" height="40" as="geometry" />
        </mxCell>
        <mxCell id="lGvIj3j2PqMRO3OpGktE-10" value="&lt;b&gt;&lt;font style=&quot;font-size: 14px&quot;&gt;。&lt;br&gt;。&lt;br&gt;。&lt;/font&gt;&lt;/b&gt;" style="text;html=1;strokeColor=none;fillColor=none;align=center;verticalAlign=middle;whiteSpace=wrap;rounded=0;" vertex="1" parent="1">
          <mxGeometry x="690" y="110" width="40" height="110" as="geometry" />
        </mxCell>
        <mxCell id="lGvIj3j2PqMRO3OpGktE-11" value="&lt;b&gt;&lt;font style=&quot;font-size: 14px&quot;&gt;。&lt;br&gt;。&lt;br&gt;。&lt;/font&gt;&lt;/b&gt;" style="text;html=1;strokeColor=none;fillColor=none;align=center;verticalAlign=middle;whiteSpace=wrap;rounded=0;" vertex="1" parent="1">
          <mxGeometry x="450" y="390" width="40" height="110" as="geometry" />
        </mxCell>
      </root>
    </mxGraphModel>
  </diagram>
</mxfile>
